<svg width="111" height="36" viewBox="0 0 111 36" fill="none" xmlns="http://www.w3.org/2000/svg">
<path d="M1.2642 17V2.45455H7.00284C8.10133 2.45455 9.03883 2.65104 9.81534 3.04403C10.5966 3.43229 11.1908 3.9839 11.598 4.69886C12.0099 5.40909 12.2159 6.24479 12.2159 7.20597C12.2159 8.17187 12.0076 9.00284 11.5909 9.69886C11.1742 10.3902 10.5705 10.9205 9.77983 11.2898C8.99384 11.6591 8.04214 11.8438 6.92472 11.8438H3.08239V9.37216H6.42756C7.01468 9.37216 7.50237 9.29167 7.89062 9.13068C8.27888 8.9697 8.56771 8.72822 8.7571 8.40625C8.95123 8.08428 9.0483 7.68419 9.0483 7.20597C9.0483 6.72301 8.95123 6.31581 8.7571 5.98438C8.56771 5.65294 8.27652 5.40199 7.88352 5.23153C7.49527 5.05634 7.00521 4.96875 6.41335 4.96875H4.33949V17H1.2642ZM9.11932 10.3807L12.7344 17H9.33949L5.80256 10.3807H9.11932ZM19.1282 17.2131C18.006 17.2131 17.0401 16.9858 16.2305 16.5312C15.4255 16.072 14.8053 15.4233 14.3697 14.5852C13.9341 13.7424 13.7163 12.7457 13.7163 11.5952C13.7163 10.473 13.9341 9.48816 14.3697 8.64062C14.8053 7.79309 15.4184 7.13258 16.2092 6.65909C17.0046 6.18561 17.9374 5.94886 19.0075 5.94886C19.7272 5.94886 20.3971 6.06487 21.0174 6.29688C21.6424 6.52415 22.1869 6.86742 22.6509 7.3267C23.1197 7.78598 23.4843 8.36364 23.7447 9.05966C24.0051 9.75095 24.1353 10.5606 24.1353 11.4886V12.3196H14.9237V10.4446H21.2873C21.2873 10.009 21.1926 9.62311 21.0032 9.28693C20.8138 8.95076 20.551 8.68797 20.2148 8.49858C19.8834 8.30445 19.4975 8.20739 19.0572 8.20739C18.5979 8.20739 18.1907 8.31392 17.8356 8.52699C17.4852 8.73532 17.2106 9.01705 17.0117 9.37216C16.8129 9.72254 16.7111 10.1132 16.7063 10.544V12.3267C16.7063 12.8665 16.8058 13.3329 17.0046 13.7259C17.2082 14.1188 17.4947 14.4219 17.864 14.6349C18.2333 14.848 18.6713 14.9545 19.1779 14.9545C19.5141 14.9545 19.8219 14.9072 20.1012 14.8125C20.3806 14.7178 20.6197 14.5758 20.8185 14.3864C21.0174 14.197 21.1689 13.965 21.2731 13.6903L24.0714 13.875C23.9293 14.5473 23.6381 15.1345 23.1978 15.6364C22.7622 16.1335 22.1987 16.5218 21.5075 16.8011C20.8209 17.0758 20.0278 17.2131 19.1282 17.2131ZM31.9123 6.09091V8.36364H25.3427V6.09091H31.9123ZM26.8342 3.47727H29.8597V13.6477C29.8597 13.9271 29.9023 14.1449 29.9876 14.3011C30.0728 14.4527 30.1912 14.5592 30.3427 14.6207C30.4989 14.6823 30.6789 14.7131 30.8825 14.7131C31.0245 14.7131 31.1665 14.7012 31.3086 14.6776C31.4506 14.6491 31.5595 14.6278 31.6353 14.6136L32.1112 16.8651C31.9596 16.9124 31.7466 16.9669 31.4719 17.0284C31.1973 17.0947 30.8635 17.1349 30.4705 17.1491C29.7414 17.1776 29.1022 17.0805 28.5529 16.858C28.0084 16.6354 27.5846 16.2898 27.2816 15.821C26.9786 15.3523 26.8294 14.7604 26.8342 14.0455V3.47727ZM36.994 17.206C36.2979 17.206 35.6777 17.0852 35.1332 16.8438C34.5887 16.5975 34.1578 16.2353 33.8406 15.7571C33.5281 15.2741 33.3718 14.6728 33.3718 13.9531C33.3718 13.3471 33.4831 12.8381 33.7056 12.4261C33.9281 12.0142 34.2312 11.6828 34.6147 11.4318C34.9982 11.1809 35.4338 10.9915 35.9215 10.8636C36.4139 10.7358 36.93 10.6458 37.4698 10.5938C38.1043 10.5275 38.6156 10.4659 39.0039 10.4091C39.3922 10.3475 39.6739 10.2576 39.8491 10.1392C40.0243 10.0208 40.1119 9.84564 40.1119 9.61364V9.57102C40.1119 9.12121 39.9698 8.7732 39.6857 8.52699C39.4064 8.28078 39.0086 8.15767 38.4925 8.15767C37.948 8.15767 37.5148 8.27841 37.1928 8.51989C36.8709 8.75663 36.6578 9.05492 36.5536 9.41477L33.7553 9.1875C33.8974 8.52462 34.1767 7.9517 34.5934 7.46875C35.0101 6.98106 35.5475 6.60701 36.2056 6.34659C36.8685 6.08144 37.6355 5.94886 38.5067 5.94886C39.1128 5.94886 39.6928 6.01989 40.2468 6.16193C40.8055 6.30398 41.3003 6.52415 41.7312 6.82244C42.1668 7.12074 42.5101 7.50426 42.761 7.97301C43.012 8.43703 43.1374 8.99337 43.1374 9.64205V17H40.2681V15.4872H40.1829C40.0077 15.8281 39.7733 16.1288 39.4798 16.3892C39.1862 16.6449 38.8335 16.8461 38.4215 16.9929C38.0096 17.1349 37.5337 17.206 36.994 17.206ZM37.8604 15.1179C38.3055 15.1179 38.6985 15.0303 39.0394 14.8551C39.3803 14.6752 39.6478 14.4337 39.842 14.1307C40.0361 13.8277 40.1332 13.4844 40.1332 13.1009V11.9432C40.0385 12.0047 39.9083 12.0616 39.7425 12.1136C39.5816 12.161 39.3993 12.206 39.1957 12.2486C38.9921 12.2865 38.7885 12.322 38.5849 12.3551C38.3813 12.3835 38.1966 12.4096 38.0309 12.4332C37.6758 12.4853 37.3656 12.5682 37.1005 12.6818C36.8353 12.7955 36.6294 12.9493 36.4826 13.1435C36.3358 13.3329 36.2624 13.5696 36.2624 13.8537C36.2624 14.2656 36.4116 14.5805 36.7099 14.7983C37.0129 15.0114 37.3964 15.1179 37.8604 15.1179ZM45.4847 17V6.09091H48.5103V17H45.4847ZM47.0046 4.68466C46.5548 4.68466 46.1689 4.53551 45.8469 4.23722C45.5297 3.93419 45.3711 3.57197 45.3711 3.15057C45.3711 2.7339 45.5297 2.37642 45.8469 2.07812C46.1689 1.77509 46.5548 1.62358 47.0046 1.62358C47.4544 1.62358 47.8379 1.77509 48.1552 2.07812C48.4772 2.37642 48.6381 2.7339 48.6381 3.15057C48.6381 3.57197 48.4772 3.93419 48.1552 4.23722C47.8379 4.53551 47.4544 4.68466 47.0046 4.68466ZM53.9595 2.45455V17H50.9339V2.45455H53.9595ZM68.9595 6.63778C68.9027 6.06487 68.6589 5.61979 68.228 5.30256C67.7971 4.98532 67.2124 4.8267 66.4737 4.8267C65.9718 4.8267 65.5481 4.89773 65.2024 5.03977C64.8568 5.17708 64.5916 5.36884 64.407 5.61506C64.227 5.86127 64.1371 6.14062 64.1371 6.45312C64.1276 6.71354 64.1821 6.94081 64.3004 7.13494C64.4235 7.32907 64.5916 7.49716 64.8047 7.6392C65.0178 7.77651 65.264 7.89725 65.5433 8.00142C65.8227 8.10085 66.121 8.18608 66.4382 8.2571L67.745 8.5696C68.3795 8.71165 68.9619 8.90104 69.4922 9.13778C70.0225 9.37453 70.4818 9.66572 70.87 10.0114C71.2583 10.357 71.5589 10.7642 71.772 11.233C71.9898 11.7017 72.1011 12.2391 72.1058 12.8452C72.1011 13.7353 71.8738 14.5071 71.424 15.1605C70.9789 15.8092 70.335 16.3134 69.4922 16.6733C68.6541 17.0284 67.6432 17.206 66.4595 17.206C65.2853 17.206 64.2625 17.026 63.3913 16.6662C62.5249 16.3063 61.8478 15.7737 61.3601 15.0682C60.8771 14.358 60.6238 13.4796 60.6001 12.4332H63.576C63.6091 12.9209 63.7488 13.3281 63.995 13.6548C64.246 13.9768 64.5798 14.2206 64.9964 14.3864C65.4179 14.5473 65.8937 14.6278 66.424 14.6278C66.9448 14.6278 67.397 14.5521 67.7805 14.4006C68.1688 14.2491 68.4695 14.0384 68.6825 13.7685C68.8956 13.4986 69.0021 13.1884 69.0021 12.8381C69.0021 12.5114 68.9051 12.2367 68.7109 12.0142C68.5215 11.7917 68.2422 11.6023 67.8729 11.446C67.5083 11.2898 67.0608 11.1477 66.5305 11.0199L64.9467 10.6222C63.7204 10.3239 62.7521 9.85748 62.0419 9.22301C61.3317 8.58854 60.9789 7.7339 60.9837 6.65909C60.9789 5.77841 61.2133 5.009 61.6868 4.35085C62.165 3.69271 62.8208 3.17898 63.6541 2.80966C64.4875 2.44034 65.4344 2.25568 66.495 2.25568C67.5746 2.25568 68.5168 2.44034 69.3217 2.80966C70.1314 3.17898 70.7611 3.69271 71.2109 4.35085C71.6607 5.009 71.8928 5.77131 71.907 6.63778H68.9595ZM81.1133 12.3551V6.09091H84.1388V17H81.234V15.0185H81.1204C80.8742 15.6577 80.4646 16.1714 79.8917 16.5597C79.3235 16.9479 78.6299 17.142 77.8107 17.142C77.0816 17.142 76.44 16.9763 75.886 16.6449C75.332 16.3134 74.8988 15.8423 74.5863 15.2315C74.2785 14.6207 74.1223 13.8892 74.1175 13.0369V6.09091H77.1431V12.4972C77.1478 13.1411 77.3207 13.6501 77.6616 14.0241C78.0025 14.3982 78.4594 14.5852 79.0323 14.5852C79.3969 14.5852 79.7378 14.5024 80.055 14.3366C80.3723 14.1662 80.628 13.9152 80.8221 13.5838C81.021 13.2524 81.118 12.8428 81.1133 12.3551ZM86.5589 17V6.09091H89.5845V17H86.5589ZM88.0788 4.68466C87.629 4.68466 87.2431 4.53551 86.9212 4.23722C86.6039 3.93419 86.4453 3.57197 86.4453 3.15057C86.4453 2.7339 86.6039 2.37642 86.9212 2.07812C87.2431 1.77509 87.629 1.62358 88.0788 1.62358C88.5286 1.62358 88.9122 1.77509 89.2294 2.07812C89.5514 2.37642 89.7124 2.7339 89.7124 3.15057C89.7124 3.57197 89.5514 3.93419 89.2294 4.23722C88.9122 4.53551 88.5286 4.68466 88.0788 4.68466ZM97.8107 6.09091V8.36364H91.2411V6.09091H97.8107ZM92.7326 3.47727H95.7582V13.6477C95.7582 13.9271 95.8008 14.1449 95.886 14.3011C95.9712 14.4527 96.0896 14.5592 96.2411 14.6207C96.3974 14.6823 96.5773 14.7131 96.7809 14.7131C96.9229 14.7131 97.065 14.7012 97.207 14.6776C97.3491 14.6491 97.458 14.6278 97.5337 14.6136L98.0096 16.8651C97.8581 16.9124 97.645 16.9669 97.3704 17.0284C97.0958 17.0947 96.762 17.1349 96.369 17.1491C95.6398 17.1776 95.0006 17.0805 94.4513 16.858C93.9068 16.6354 93.4831 16.2898 93.18 15.821C92.877 15.3523 92.7279 14.7604 92.7326 14.0455V3.47727ZM104.636 17.2131C103.514 17.2131 102.548 16.9858 101.738 16.5312C100.933 16.072 100.313 15.4233 99.8775 14.5852C99.4419 13.7424 99.2241 12.7457 99.2241 11.5952C99.2241 10.473 99.4419 9.48816 99.8775 8.64062C100.313 7.79309 100.926 7.13258 101.717 6.65909C102.512 6.18561 103.445 5.94886 104.515 5.94886C105.235 5.94886 105.905 6.06487 106.525 6.29688C107.15 6.52415 107.695 6.86742 108.159 7.3267C108.627 7.78598 108.992 8.36364 109.252 9.05966C109.513 9.75095 109.643 10.5606 109.643 11.4886V12.3196H100.431V10.4446H106.795C106.795 10.009 106.7 9.62311 106.511 9.28693C106.322 8.95076 106.059 8.68797 105.723 8.49858C105.391 8.30445 105.005 8.20739 104.565 8.20739C104.106 8.20739 103.699 8.31392 103.343 8.52699C102.993 8.73532 102.718 9.01705 102.52 9.37216C102.321 9.72254 102.219 10.1132 102.214 10.544V12.3267C102.214 12.8665 102.314 13.3329 102.512 13.7259C102.716 14.1188 103.002 14.4219 103.372 14.6349C103.741 14.848 104.179 14.9545 104.686 14.9545C105.022 14.9545 105.33 14.9072 105.609 14.8125C105.888 14.7178 106.127 14.5758 106.326 14.3864C106.525 14.197 106.677 13.965 106.781 13.6903L109.579 13.875C109.437 14.5473 109.146 15.1345 108.706 15.6364C108.27 16.1335 107.707 16.5218 107.015 16.8011C106.329 17.0758 105.536 17.2131 104.636 17.2131Z" fill="#402387"/>
<path d="M21.9911 28.1253C21.5697 27.8201 20.9158 27.5295 20.1312 27.5295C18.8961 27.5295 18.0243 28.1689 18.0243 29.2441C18.0243 31.409 20.9885 30.7551 20.9885 31.9902C20.9885 32.397 20.6689 32.6876 20.015 32.6876C19.5355 32.6876 18.9252 32.4842 18.4457 32.1645C18.4457 32.1645 18.0098 32.7893 17.7773 33.109C18.6782 33.6901 19.4192 33.8063 20.0585 33.8063C21.4535 33.8063 22.3398 33.0944 22.3398 31.9611C22.3398 29.8397 19.303 30.3919 19.303 29.2586C19.303 28.8227 19.7389 28.6628 20.1312 28.6628C20.5961 28.6628 21.1338 28.8081 21.7731 29.2586L21.9911 28.1253ZM28.0937 30.6244C28.0937 31.7141 27.5125 32.6585 26.3937 32.6585C25.5219 32.6585 24.9407 32.2081 24.7954 32.0919V31.191C24.7954 29.6654 25.4638 28.7355 26.4954 28.7355C27.6433 28.7355 28.0937 29.5491 28.0937 30.6244ZM26.6697 27.5731C25.7689 27.5731 25.115 28.0671 24.7953 28.6919V27.6457H23.5022V36.0004L24.7954 35.7243V33.3414C24.7954 33.3414 25.6382 33.8064 26.5681 33.8064C28.3407 33.8064 29.416 32.4115 29.416 30.6679C29.416 28.9098 28.5006 27.5731 26.6697 27.5731ZM31.9006 36.0004L36.0999 27.6457H34.6614L32.9468 31.2782L31.2323 27.6457H29.7502L32.2349 32.5859L30.5057 35.7679L31.9006 36.0004ZM42.435 33.7192V30.5517C42.435 28.6483 41.7376 27.5586 40.0085 27.5586C39.2529 27.5586 38.57 27.9218 38.2067 28.5321V27.6457H36.899V33.7192H38.2067V30.6389C38.2067 29.5347 38.817 28.6628 39.7905 28.6628C40.7495 28.6628 41.0983 29.2731 41.0983 30.5662V33.7192H42.435ZM49.3078 30.9585C49.3078 30.9585 49.3369 30.6244 49.3369 30.3483C49.3369 28.5756 48.1309 27.544 46.6052 27.544C44.9488 27.544 43.6992 28.7936 43.6992 30.6825C43.6992 32.6004 44.8906 33.8209 46.8958 33.8209C47.724 33.8209 48.3488 33.6466 49.1335 33.0944L48.4651 32.1064C48.2035 32.3243 47.7386 32.6876 46.8958 32.6876C45.8497 32.6876 45.0069 32.1064 45.0069 30.9585L49.3078 30.9585ZM46.6342 28.6192C47.4043 28.6192 48.0437 29.0551 48.1309 29.9269H45.0796C45.312 29.0551 45.9223 28.6192 46.6342 28.6192Z" fill="black" fill-opacity="0.4"/>
<path d="M6.68552 30.4861C6.68552 29.3741 6.09242 28.4103 4.95069 28.4103C4.06103 28.4103 3.46793 28.8699 3.31965 28.9886L3.31965 29.9079C3.31965 31.4647 4.00172 32.4137 5.05448 32.4137C6.22581 32.4137 6.68552 31.5834 6.68552 30.4861ZM5.23237 33.5999C4.31306 33.5999 3.64582 33.0957 3.31961 32.4582V33.5257H2L2 25.0001L3.31965 25.2818V27.7134C3.31965 27.7134 4.17968 27.239 5.12862 27.239C6.93759 27.239 8.03483 28.6624 8.03483 30.4417C8.03483 32.2357 7.10069 33.5999 5.23237 33.5999Z" fill="black" fill-opacity="0.4"/>
<path d="M10.4609 35.8842L14.6602 27.5295H13.2217L11.5072 31.162L9.7926 27.5295H8.31055L10.7952 32.4697L9.06609 35.6517L10.4609 35.8842Z" fill="black" fill-opacity="0.4"/>
</svg>
