<svg width="40" height="40" viewBox="0 0 40 40" fill="none" xmlns="http://www.w3.org/2000/svg">
<rect width="40" height="40" rx="3.55556" fill="white"/>
<path d="M26.2361 23.2489L20.025 27.8781L25.3523 31.8026C26.1957 32.3752 27.984 32.6458 29.4514 30.9994C30.9187 29.353 30.2256 27.1287 29.4514 26.3913C28.5119 25.4966 28.1282 25.2163 26.2365 23.2478" stroke="#FFCC00" stroke-width="2.14494"/>
<path d="M13.7681 23.2431L19.9792 27.8722L14.6519 31.7968C13.8086 32.3693 12.0202 32.64 10.5529 30.9936C9.08548 29.3472 9.77861 27.1229 10.5529 26.3855C11.4923 25.4907 11.876 25.2105 13.7677 23.2419" stroke="#FF7700" stroke-width="2.14494"/>
<path d="M31.1633 19.5774L26.2528 23.2672C25.3134 22.3724 26.1601 23.2171 24.2684 21.2486C22.3766 19.2801 23.514 16.9889 24.2684 16.4039C25.0227 15.8189 26.5993 14.5159 27.0483 14.2299C27.7527 13.7811 30.0225 12.8694 31.6722 14.9805C33.1161 16.8283 32.302 18.7207 31.1633 19.5774Z" stroke="#01C6DC" stroke-width="2.14494"/>
<path d="M8.84013 19.5703L13.7506 23.2601C14.6901 22.3653 13.8433 23.21 15.7351 21.2415C17.6268 19.273 16.4894 16.9818 15.7351 16.3968C14.9807 15.8119 13.4041 14.5089 12.9551 14.2228C12.2508 13.774 9.98094 12.8623 8.33128 14.9734C6.88737 16.8212 7.70148 18.7136 8.84013 19.5703Z" stroke="#00C488" stroke-width="2.14494"/>
<ellipse cx="19.9766" cy="11.1643" rx="3.60681" ry="3.60694" stroke="#FF003D" stroke-width="2.14494"/>
<path fill-rule="evenodd" clip-rule="evenodd" d="M25.5924 22.387L18.2207 27.8811L24.7299 32.6763L24.747 32.6879C25.9826 33.5267 28.3829 33.8049 30.2491 31.711C31.2174 30.6245 31.4674 29.3415 31.3561 28.2442C31.2493 27.1917 30.7978 26.1934 30.1881 25.6127C29.9391 25.3755 29.7312 25.1831 29.5275 24.9947C28.9431 24.454 28.3934 23.9454 27.0068 22.5026L26.2329 23.2464L25.5924 22.387ZM26.1195 24.6692C27.094 25.6656 27.5881 26.1228 28.0805 26.5783C28.2797 26.7626 28.4786 26.9466 28.7088 27.1659C28.8733 27.3226 29.1556 27.8051 29.2221 28.4607C29.284 29.0715 29.1469 29.7239 28.6478 30.2838C27.5903 31.4704 26.4271 31.2248 25.966 30.9227L21.8235 27.871L26.1195 24.6692Z" fill="#FFCC00"/>
<path fill-rule="evenodd" clip-rule="evenodd" d="M14.4053 22.3799L21.777 27.874L15.2677 32.6692L15.2507 32.6808C14.0151 33.5196 11.6148 33.7978 9.74859 31.7039C8.78026 30.6174 8.5303 29.3344 8.64161 28.2371C8.74839 27.1846 9.19984 26.1863 9.80957 25.6056C10.0586 25.3684 10.2665 25.1761 10.4702 24.9876C11.0546 24.4469 11.6043 23.9383 12.9908 22.4955L13.7648 23.2393L14.4053 22.3799ZM13.8782 24.6622C12.9037 25.6585 12.4096 26.1157 11.9172 26.5713C11.718 26.7555 11.5191 26.9395 11.2889 27.1588C11.1243 27.3155 10.8421 27.798 10.7756 28.4536C10.7136 29.0644 10.8508 29.7168 11.3498 30.2767C12.4074 31.4633 13.5706 31.2177 14.0317 30.9156L18.1742 27.864L13.8782 24.6622Z" fill="#FF7700"/>
<path fill-rule="evenodd" clip-rule="evenodd" d="M29.0286 14.7149C29.585 14.7019 30.2286 14.8752 30.8249 15.6383C31.3595 16.3225 31.4339 16.9396 31.3331 17.4339C31.225 17.9645 30.8968 18.4315 30.5169 18.7175C30.5168 18.7175 30.5169 18.7175 30.5169 18.7175C30.5167 18.7176 30.5165 18.7178 30.5163 18.7179L26.3355 21.8595C26.185 21.702 25.8867 21.3846 25.0394 20.5029C24.3451 19.7804 24.2394 19.0611 24.333 18.4737C24.4385 17.8115 24.7911 17.3515 24.9234 17.2489C25.1886 17.0432 25.5553 16.7492 25.9321 16.447C26.102 16.3107 26.274 16.1728 26.4397 16.0405C27.0081 15.5869 27.4586 15.2362 27.6224 15.1319C27.8555 14.9834 28.4106 14.7294 29.0286 14.7149ZM28.9785 12.5706C27.8731 12.5964 26.9411 13.0227 26.4698 13.3229C26.1846 13.5046 25.6224 13.9485 25.1017 14.3641C24.9235 14.5063 24.7442 14.6501 24.5705 14.7894C24.2024 15.0846 23.86 15.3592 23.609 15.5539C22.9869 16.0363 22.3936 17.0144 22.2148 18.1361C22.0241 19.3327 22.2955 20.7432 23.4929 21.9892C24.6357 23.1784 24.7787 23.3408 24.9324 23.4923C25.0312 23.5898 25.1345 23.6827 25.511 24.0413L26.1687 24.6677L31.8059 20.4319C32.5644 19.8612 33.2123 18.9538 33.4349 17.8623C33.6648 16.7343 33.4243 15.4813 32.515 14.3176C31.4617 12.9697 30.1455 12.5433 28.9785 12.5706Z" fill="#01C6DC"/>
<path fill-rule="evenodd" clip-rule="evenodd" d="M10.9692 14.7078C10.4128 14.6948 9.76925 14.8681 9.1729 15.6312C8.6383 16.3154 8.56389 16.9325 8.66466 17.4268C8.77283 17.9574 9.10101 18.4244 9.48094 18.7104C9.48096 18.7105 9.48091 18.7104 9.48094 18.7104C9.48109 18.7106 9.48133 18.7107 9.48148 18.7109L13.6623 21.8524C13.8129 21.695 14.1111 21.3775 14.9584 20.4959C15.6527 19.7733 15.7585 19.054 15.6648 18.4667C15.5593 17.8044 15.2067 17.3444 15.0744 17.2418C14.8092 17.0361 14.4425 16.7421 14.0657 16.4399C13.8958 16.3036 13.7238 16.1657 13.5581 16.0335C12.9897 15.5798 12.5392 15.2291 12.3754 15.1248C12.1423 14.9763 11.5872 14.7223 10.9692 14.7078ZM11.0193 12.5635C12.1247 12.5893 13.0567 13.0156 13.528 13.3158C13.8132 13.4976 14.3754 13.9414 14.8961 14.357C15.0743 14.4992 15.2537 14.643 15.4273 14.7823C15.7954 15.0775 16.1378 15.3521 16.3888 15.5468C17.0109 16.0292 17.6042 17.0073 17.783 18.129C17.9738 19.3256 17.7023 20.7362 16.5049 21.9821C15.3621 23.1713 15.2191 23.3337 15.0654 23.4853C14.9666 23.5827 14.8633 23.6756 14.4868 24.0342L13.8291 24.6607L8.19188 20.4248C7.4334 19.8541 6.78546 18.9467 6.56294 17.8553C6.33297 16.7272 6.57346 15.4742 7.48277 14.3106C8.53607 12.9626 9.85226 12.5362 11.0193 12.5635Z" fill="#00C488"/>
<path fill-rule="evenodd" clip-rule="evenodd" d="M19.9731 8.62736C18.5735 8.62736 17.4388 9.76205 17.4388 11.1618C17.4388 12.5616 18.5735 13.6963 19.9731 13.6963C21.3727 13.6963 22.5074 12.5616 22.5074 11.1618C22.5074 9.76205 21.3727 8.62736 19.9731 8.62736ZM15.2938 11.1618C15.2938 8.5775 17.3888 6.48242 19.9731 6.48242C22.5574 6.48242 24.6524 8.5775 24.6524 11.1618C24.6524 13.7462 22.5574 15.8413 19.9731 15.8413C17.3888 15.8413 15.2938 13.7462 15.2938 11.1618Z" fill="#FF003D"/>
</svg>
